<?xml version="1.0" standalone="no"?>
<!DOCTYPE svg PUBLIC "-//W3C//DTD SVG 20010904//EN"
 "http://www.w3.org/TR/2001/REC-SVG-20010904/DTD/svg10.dtd">
<svg version="1.0" xmlns="http://www.w3.org/2000/svg"
 width="700.000000pt" height="700.000000pt" viewBox="0 0 700.000000 700.000000"
 preserveAspectRatio="xMidYMid meet">
<metadata>
Created by potrace 1.14, written by Peter Selinger 2001-2017
</metadata>
<g transform="translate(0.000000,700.000000) scale(0.100000,-0.100000)"
fill="#000000" stroke="none">
<path d="M3337 6804 c-1 -1 -51 -5 -110 -8 -59 -4 -113 -9 -120 -11 -7 -2 -37
-6 -67 -10 -207 -22 -492 -92 -725 -180 -576 -215 -1099 -602 -1468 -1085
-337 -440 -573 -995 -641 -1505 -3 -22 -8 -51 -10 -65 -14 -75 -20 -210 -21
-415 0 -196 10 -408 20 -425 2 -3 6 -30 10 -60 3 -30 8 -62 10 -70 2 -8 7 -34
10 -57 10 -70 81 -341 118 -448 72 -211 183 -451 285 -618 23 -37 42 -72 42
-77 0 -6 4 -10 8 -10 4 0 16 -15 26 -32 96 -166 362 -476 566 -658 403 -361
937 -638 1450 -755 169 -38 350 -65 535 -80 57 -5 380 -5 440 -1 101 8 210 18
215 21 3 2 30 6 60 9 53 6 76 10 130 21 14 3 41 8 60 11 123 20 468 126 588
180 29 13 55 24 57 24 13 0 214 100 315 158 444 250 847 624 1127 1047 44 66
102 161 130 210 27 50 55 99 61 110 24 41 96 204 137 310 84 219 128 377 179
650 3 18 15 107 22 160 31 259 23 598 -21 895 -53 360 -220 821 -408 1130 -22
36 -45 74 -51 85 -152 268 -492 639 -802 877 -60 46 -253 178 -260 178 -2 0
-28 16 -59 35 -50 33 -347 185 -359 185 -3 0 -30 11 -59 25 -99 45 -427 149
-542 171 -17 3 -66 14 -85 19 -3 1 -32 5 -65 10 -33 5 -62 10 -65 10 -7 2 -99
16 -135 20 -106 14 -517 29 -528 19z"/>
</g>
</svg>
