<svg id="visual" viewBox="0 0 900 450" width="900" height="450" xmlns="http://www.w3.org/2000/svg" xmlns:xlink="http://www.w3.org/1999/xlink" version="1.1"><rect x="0" y="0" width="900" height="450" fill="#171719"></rect><path d="M0 338L10.7 336C21.3 334 42.7 330 64.2 322.3C85.7 314.7 107.3 303.3 128.8 302C150.3 300.7 171.7 309.3 193 312.2C214.3 315 235.7 312 257 316C278.3 320 299.7 331 321.2 333.3C342.7 335.7 364.3 329.3 385.8 321.8C407.3 314.3 428.7 305.7 450 308.2C471.3 310.7 492.7 324.3 514.2 332C535.7 339.7 557.3 341.3 578.8 337.7C600.3 334 621.7 325 643 319.2C664.3 313.3 685.7 310.7 707 315.3C728.3 320 749.7 332 771.2 333.3C792.7 334.7 814.3 325.3 835.8 321.7C857.3 318 878.7 320 889.3 321L900 322L900 451L889.3 451C878.7 451 857.3 451 835.8 451C814.3 451 792.7 451 771.2 451C749.7 451 728.3 451 707 451C685.7 451 664.3 451 643 451C621.7 451 600.3 451 578.8 451C557.3 451 535.7 451 514.2 451C492.7 451 471.3 451 450 451C428.7 451 407.3 451 385.8 451C364.3 451 342.7 451 321.2 451C299.7 451 278.3 451 257 451C235.7 451 214.3 451 193 451C171.7 451 150.3 451 128.8 451C107.3 451 85.7 451 64.2 451C42.7 451 21.3 451 10.7 451L0 451Z" fill="#1c317e"></path><path d="M0 318L10.7 326.2C21.3 334.3 42.7 350.7 64.2 356.2C85.7 361.7 107.3 356.3 128.8 347.8C150.3 339.3 171.7 327.7 193 329.8C214.3 332 235.7 348 257 351.8C278.3 355.7 299.7 347.3 321.2 341.5C342.7 335.7 364.3 332.3 385.8 334C407.3 335.7 428.7 342.3 450 343C471.3 343.7 492.7 338.3 514.2 334.7C535.7 331 557.3 329 578.8 330.3C600.3 331.7 621.7 336.3 643 342.3C664.3 348.3 685.7 355.7 707 354C728.3 352.3 749.7 341.7 771.2 335.2C792.7 328.7 814.3 326.3 835.8 324.3C857.3 322.3 878.7 320.7 889.3 319.8L900 319L900 451L889.3 451C878.7 451 857.3 451 835.8 451C814.3 451 792.7 451 771.2 451C749.7 451 728.3 451 707 451C685.7 451 664.3 451 643 451C621.7 451 600.3 451 578.8 451C557.3 451 535.7 451 514.2 451C492.7 451 471.3 451 450 451C428.7 451 407.3 451 385.8 451C364.3 451 342.7 451 321.2 451C299.7 451 278.3 451 257 451C235.7 451 214.3 451 193 451C171.7 451 150.3 451 128.8 451C107.3 451 85.7 451 64.2 451C42.7 451 21.3 451 10.7 451L0 451Z" fill="#7b4184"></path><path d="M0 351L10.7 357C21.3 363 42.7 375 64.2 380.3C85.7 385.7 107.3 384.3 128.8 384.3C150.3 384.3 171.7 385.7 193 379.7C214.3 373.7 235.7 360.3 257 359.3C278.3 358.3 299.7 369.7 321.2 372.5C342.7 375.3 364.3 369.7 385.8 365C407.3 360.3 428.7 356.7 450 359.2C471.3 361.7 492.7 370.3 514.2 374.8C535.7 379.3 557.3 379.7 578.8 380.3C600.3 381 621.7 382 643 377C664.3 372 685.7 361 707 359.5C728.3 358 749.7 366 771.2 371.7C792.7 377.3 814.3 380.7 835.8 376.3C857.3 372 878.7 360 889.3 354L900 348L900 451L889.3 451C878.7 451 857.3 451 835.8 451C814.3 451 792.7 451 771.2 451C749.7 451 728.3 451 707 451C685.7 451 664.3 451 643 451C621.7 451 600.3 451 578.8 451C557.3 451 535.7 451 514.2 451C492.7 451 471.3 451 450 451C428.7 451 407.3 451 385.8 451C364.3 451 342.7 451 321.2 451C299.7 451 278.3 451 257 451C235.7 451 214.3 451 193 451C171.7 451 150.3 451 128.8 451C107.3 451 85.7 451 64.2 451C42.7 451 21.3 451 10.7 451L0 451Z" fill="#b35d84"></path><path d="M0 389L10.7 392.3C21.3 395.7 42.7 402.3 64.2 405.7C85.7 409 107.3 409 128.8 403.3C150.3 397.7 171.7 386.3 193 385.2C214.3 384 235.7 393 257 394C278.3 395 299.7 388 321.2 383.2C342.7 378.3 364.3 375.7 385.8 374.7C407.3 373.7 428.7 374.3 450 378C471.3 381.7 492.7 388.3 514.2 390.8C535.7 393.3 557.3 391.7 578.8 389.3C600.3 387 621.7 384 643 384C664.3 384 685.7 387 707 388.8C728.3 390.7 749.7 391.3 771.2 390.5C792.7 389.7 814.3 387.3 835.8 387.3C857.3 387.3 878.7 389.7 889.3 390.8L900 392L900 451L889.3 451C878.7 451 857.3 451 835.8 451C814.3 451 792.7 451 771.2 451C749.7 451 728.3 451 707 451C685.7 451 664.3 451 643 451C621.7 451 600.3 451 578.8 451C557.3 451 535.7 451 514.2 451C492.7 451 471.3 451 450 451C428.7 451 407.3 451 385.8 451C364.3 451 342.7 451 321.2 451C299.7 451 278.3 451 257 451C235.7 451 214.3 451 193 451C171.7 451 150.3 451 128.8 451C107.3 451 85.7 451 64.2 451C42.7 451 21.3 451 10.7 451L0 451Z" fill="#d98589"></path><path d="M0 408L10.7 411.2C21.3 414.3 42.7 420.7 64.2 419.2C85.7 417.7 107.3 408.3 128.8 408.8C150.3 409.3 171.7 419.7 193 425.7C214.3 431.7 235.7 433.3 257 428.8C278.3 424.3 299.7 413.7 321.2 407.8C342.7 402 364.3 401 385.8 406.7C407.3 412.3 428.7 424.7 450 424.7C471.3 424.7 492.7 412.3 514.2 408.5C535.7 404.7 557.3 409.3 578.8 414C600.3 418.7 621.7 423.3 643 421.8C664.3 420.3 685.7 412.7 707 412.2C728.3 411.7 749.7 418.3 771.2 419.7C792.7 421 814.3 417 835.8 414.3C857.3 411.7 878.7 410.3 889.3 409.7L900 409L900 451L889.3 451C878.7 451 857.3 451 835.8 451C814.3 451 792.7 451 771.2 451C749.7 451 728.3 451 707 451C685.7 451 664.3 451 643 451C621.7 451 600.3 451 578.8 451C557.3 451 535.7 451 514.2 451C492.7 451 471.3 451 450 451C428.7 451 407.3 451 385.8 451C364.3 451 342.7 451 321.2 451C299.7 451 278.3 451 257 451C235.7 451 214.3 451 193 451C171.7 451 150.3 451 128.8 451C107.3 451 85.7 451 64.2 451C42.7 451 21.3 451 10.7 451L0 451Z" fill="#f2b299"></path></svg>